<svg xmlns="http://www.w3.org/2000/svg" viewBox="0 0 1024 1024">
  <path d="M618 654 L618 794 L711 794 L711 771 L647 771 L646 770 L646 736 L647 735 L704 735 L704 713 L703 712 L647 712 L646 711 L646 678 L647 677 L710 677 L710 654 Z M382 654 L382 656 L381 657 L381 658 L380 659 L380 661 L379 662 L379 664 L378 665 L378 666 L377 667 L377 669 L376 670 L376 672 L375 673 L375 674 L374 675 L374 677 L373 678 L373 680 L372 681 L372 683 L371 684 L371 685 L370 686 L370 688 L369 689 L369 691 L368 692 L368 693 L367 694 L367 696 L366 697 L366 699 L365 700 L365 701 L364 702 L364 704 L363 705 L363 707 L362 708 L362 710 L361 711 L361 712 L360 713 L360 715 L359 716 L359 718 L358 719 L358 721 L357 722 L357 723 L356 724 L356 726 L355 727 L355 729 L354 730 L354 732 L353 733 L353 734 L352 735 L352 737 L351 738 L351 740 L350 741 L350 743 L349 744 L349 745 L348 746 L348 748 L347 749 L347 751 L346 752 L346 753 L345 754 L345 756 L344 757 L344 759 L343 760 L343 762 L342 763 L342 764 L341 765 L341 767 L340 768 L340 770 L339 771 L339 772 L338 773 L338 775 L337 776 L337 778 L336 779 L336 781 L335 782 L335 783 L334 784 L334 786 L333 787 L333 789 L332 790 L332 792 L331 793 L331 794 L359 794 L360 793 L360 791 L361 790 L361 789 L362 788 L362 786 L363 785 L363 783 L364 782 L364 780 L365 779 L365 777 L366 776 L366 774 L367 773 L367 771 L368 770 L368 768 L369 767 L369 765 L371 763 L424 763 L426 765 L426 767 L427 768 L427 771 L428 772 L428 774 L429 775 L429 777 L430 778 L430 780 L431 781 L431 782 L432 783 L432 786 L433 787 L433 789 L434 790 L434 792 L435 793 L435 794 L465 794 L465 793 L464 792 L464 790 L463 789 L463 788 L462 787 L462 785 L461 784 L461 783 L460 782 L460 780 L459 779 L459 777 L458 776 L458 774 L457 773 L457 772 L456 771 L456 769 L455 768 L455 766 L454 765 L454 764 L453 763 L453 761 L452 760 L452 758 L451 757 L451 756 L450 755 L450 753 L449 752 L449 750 L448 749 L448 748 L447 747 L447 745 L446 744 L446 742 L445 741 L445 739 L444 738 L444 737 L443 736 L443 734 L442 733 L442 732 L441 731 L441 729 L440 728 L440 726 L439 725 L439 724 L438 723 L438 721 L437 720 L437 718 L436 717 L436 715 L435 714 L435 713 L434 712 L434 710 L433 709 L433 707 L432 706 L432 705 L431 704 L431 702 L430 701 L430 699 L429 698 L429 697 L428 696 L428 694 L427 693 L427 691 L426 690 L426 689 L425 688 L425 686 L424 685 L424 683 L423 682 L423 680 L422 679 L422 678 L421 677 L421 675 L420 674 L420 672 L419 671 L419 670 L418 669 L418 667 L417 666 L417 664 L416 663 L416 662 L415 661 L415 659 L414 658 L414 656 L413 655 L413 654 Z M395 688 L396 687 L398 687 L400 689 L400 691 L401 692 L401 694 L402 695 L402 697 L403 698 L403 699 L404 700 L404 702 L405 703 L405 705 L406 706 L406 708 L407 709 L407 711 L408 712 L408 714 L409 715 L409 717 L410 718 L410 720 L411 721 L411 723 L412 724 L412 726 L413 727 L413 729 L414 730 L414 731 L415 732 L415 734 L416 735 L416 739 L415 740 L379 740 L378 739 L378 736 L379 735 L379 733 L380 732 L380 730 L381 729 L381 727 L382 726 L382 725 L383 724 L383 722 L384 721 L384 719 L385 718 L385 716 L386 715 L386 713 L387 712 L387 711 L388 710 L388 708 L389 707 L389 705 L390 704 L390 702 L391 701 L391 699 L392 698 L392 697 L393 696 L393 694 L394 693 L394 691 L395 690 Z M231 654 L231 657 L230 658 L230 659 L229 660 L229 662 L228 663 L228 665 L227 666 L227 667 L226 668 L226 670 L225 671 L225 673 L224 674 L224 675 L223 676 L223 678 L222 679 L222 681 L221 682 L221 684 L220 685 L220 687 L219 688 L219 689 L218 690 L218 692 L217 693 L217 695 L216 696 L216 697 L215 698 L215 700 L214 701 L214 703 L213 704 L213 706 L212 707 L212 708 L211 709 L211 711 L210 712 L210 714 L209 715 L209 717 L208 718 L208 719 L207 720 L207 722 L206 723 L206 725 L205 726 L205 728 L204 729 L204 730 L203 731 L203 733 L202 734 L202 736 L201 737 L201 739 L200 740 L200 741 L199 742 L199 744 L198 745 L198 747 L197 748 L197 750 L196 751 L196 752 L195 753 L195 755 L194 756 L194 758 L193 759 L193 761 L192 762 L192 763 L191 764 L191 766 L190 767 L190 769 L189 770 L189 772 L188 773 L188 774 L187 775 L187 777 L186 778 L186 780 L185 781 L185 782 L184 783 L184 785 L183 786 L183 788 L182 789 L182 791 L181 792 L181 793 L180 794 L209 794 L209 793 L210 792 L210 790 L211 789 L211 788 L212 787 L212 785 L213 784 L213 782 L214 781 L214 779 L215 778 L215 776 L216 775 L216 773 L217 772 L217 770 L218 769 L218 767 L219 766 L219 764 L220 763 L275 763 L276 764 L276 767 L277 768 L277 770 L278 771 L278 773 L279 774 L279 776 L280 777 L280 778 L281 779 L281 781 L282 782 L282 784 L283 785 L283 787 L284 788 L284 790 L285 791 L285 794 L315 794 L315 793 L314 792 L314 790 L313 789 L313 787 L312 786 L312 785 L311 784 L311 782 L310 781 L310 780 L309 779 L309 777 L308 776 L308 774 L307 773 L307 771 L306 770 L306 769 L305 768 L305 766 L304 765 L304 764 L303 763 L303 761 L302 760 L302 758 L301 757 L301 755 L300 754 L300 753 L299 752 L299 750 L298 749 L298 747 L297 746 L297 745 L296 744 L296 742 L295 741 L295 739 L294 738 L294 737 L293 736 L293 734 L292 733 L292 731 L291 730 L291 729 L290 728 L290 726 L289 725 L289 723 L288 722 L288 721 L287 720 L287 718 L286 717 L286 715 L285 714 L285 712 L284 711 L284 710 L283 709 L283 707 L282 706 L282 704 L281 703 L281 702 L280 701 L280 699 L279 698 L279 696 L278 695 L278 694 L277 693 L277 691 L276 690 L276 688 L275 687 L275 686 L274 685 L274 683 L273 682 L273 680 L272 679 L272 677 L271 676 L271 675 L270 674 L270 672 L269 671 L269 669 L268 668 L268 667 L267 666 L267 664 L266 663 L266 661 L265 660 L265 659 L264 658 L264 656 L263 655 L263 654 Z M245 687 L246 686 L248 686 L249 687 L249 688 L250 689 L250 690 L251 691 L251 693 L252 694 L252 696 L253 697 L253 699 L254 700 L254 702 L255 703 L255 705 L256 706 L256 708 L257 709 L257 711 L258 712 L258 713 L259 714 L259 716 L260 717 L260 719 L261 720 L261 722 L262 723 L262 725 L263 726 L263 728 L264 729 L264 731 L265 732 L265 734 L266 735 L266 739 L265 740 L229 740 L228 739 L228 735 L229 734 L229 732 L230 731 L230 729 L231 728 L231 726 L232 725 L232 723 L233 722 L233 721 L234 720 L234 718 L235 717 L235 715 L236 714 L236 712 L237 711 L237 709 L238 708 L238 707 L239 706 L239 704 L240 703 L240 701 L241 700 L241 698 L242 697 L242 695 L243 694 L243 692 L244 691 L244 690 L245 689 Z M779 651 L778 652 L772 652 L771 653 L768 653 L767 654 L765 654 L764 655 L762 655 L761 656 L760 656 L759 657 L758 657 L757 658 L756 658 L755 659 L754 659 L753 660 L752 660 L749 663 L748 663 L744 667 L744 668 L741 671 L741 672 L740 673 L740 674 L739 675 L739 676 L738 677 L738 679 L737 680 L737 682 L736 683 L736 688 L735 689 L735 697 L736 698 L736 703 L737 704 L737 706 L738 707 L738 709 L739 710 L739 711 L742 714 L742 715 L747 720 L748 720 L750 722 L751 722 L753 724 L754 724 L755 725 L756 725 L757 726 L758 726 L759 727 L761 727 L762 728 L763 728 L764 729 L766 729 L767 730 L769 730 L770 731 L772 731 L773 732 L776 732 L777 733 L781 733 L782 734 L785 734 L786 735 L790 735 L791 736 L794 736 L795 737 L797 737 L798 738 L800 738 L801 739 L802 739 L803 740 L804 740 L805 741 L806 741 L812 747 L812 748 L813 749 L813 750 L814 751 L814 760 L813 761 L813 763 L811 765 L811 766 L808 769 L807 769 L805 771 L804 771 L803 772 L802 772 L801 773 L799 773 L798 774 L794 774 L793 775 L781 775 L780 774 L776 774 L775 773 L773 773 L772 772 L771 772 L770 771 L769 771 L768 770 L767 770 L761 764 L761 763 L760 762 L760 761 L759 760 L759 758 L758 757 L758 753 L731 753 L731 759 L732 760 L732 764 L733 765 L733 767 L734 768 L734 770 L735 771 L735 772 L736 773 L736 774 L738 776 L738 777 L740 779 L740 780 L745 785 L746 785 L749 788 L750 788 L751 789 L752 789 L753 790 L754 790 L755 791 L756 791 L757 792 L758 792 L759 793 L761 793 L762 794 L764 794 L765 795 L769 795 L770 796 L774 796 L775 797 L798 797 L799 796 L803 796 L804 795 L807 795 L808 794 L811 794 L812 793 L813 793 L814 792 L816 792 L817 791 L818 791 L819 790 L820 790 L821 789 L822 789 L824 787 L825 787 L835 777 L835 776 L837 774 L837 773 L838 772 L838 770 L839 769 L839 768 L840 767 L840 764 L841 763 L841 745 L840 744 L840 741 L839 740 L839 738 L838 737 L838 736 L837 735 L837 734 L835 732 L835 731 L827 723 L826 723 L824 721 L823 721 L822 720 L821 720 L820 719 L819 719 L818 718 L817 718 L816 717 L814 717 L813 716 L812 716 L811 715 L808 715 L807 714 L805 714 L804 713 L801 713 L800 712 L796 712 L795 711 L791 711 L790 710 L786 710 L785 709 L782 709 L781 708 L778 708 L777 707 L775 707 L774 706 L773 706 L772 705 L771 705 L770 704 L769 704 L763 698 L763 696 L762 695 L762 685 L763 684 L763 683 L764 682 L764 681 L769 676 L770 676 L771 675 L772 675 L773 674 L774 674 L775 673 L779 673 L780 672 L791 672 L792 673 L796 673 L797 674 L798 674 L799 675 L801 675 L803 677 L804 677 L809 682 L809 683 L810 684 L810 685 L811 686 L811 688 L812 689 L812 692 L838 692 L838 685 L837 684 L837 681 L836 680 L836 678 L835 677 L835 675 L834 674 L834 673 L833 672 L833 671 L830 668 L830 667 L825 662 L824 662 L822 660 L821 660 L819 658 L818 658 L817 657 L816 657 L815 656 L813 656 L812 655 L811 655 L810 654 L807 654 L806 653 L803 653 L802 652 L795 652 L794 651 Z M528 651 L527 652 L521 652 L520 653 L517 653 L516 654 L514 654 L513 655 L511 655 L510 656 L509 656 L508 657 L507 657 L506 658 L505 658 L504 659 L503 659 L502 660 L501 660 L491 670 L491 671 L490 672 L490 673 L489 674 L489 675 L488 676 L488 677 L487 678 L487 680 L486 681 L486 684 L485 685 L485 700 L486 701 L486 704 L487 705 L487 707 L488 708 L488 709 L489 710 L489 711 L491 713 L491 714 L498 721 L499 721 L501 723 L502 723 L503 724 L504 724 L505 725 L506 725 L507 726 L508 726 L509 727 L510 727 L511 728 L513 728 L514 729 L515 729 L516 730 L518 730 L519 731 L522 731 L523 732 L526 732 L527 733 L530 733 L531 734 L535 734 L536 735 L539 735 L540 736 L543 736 L544 737 L547 737 L548 738 L549 738 L550 739 L552 739 L553 740 L554 740 L556 742 L557 742 L561 746 L561 747 L563 749 L563 751 L564 752 L564 759 L563 760 L563 762 L562 763 L562 764 L556 770 L555 770 L553 772 L551 772 L550 773 L548 773 L547 774 L543 774 L542 775 L531 775 L530 774 L526 774 L525 773 L523 773 L522 772 L520 772 L519 771 L518 771 L516 769 L515 769 L511 765 L511 764 L510 763 L510 762 L509 761 L509 760 L508 759 L508 754 L507 753 L481 753 L481 761 L482 762 L482 765 L483 766 L483 768 L484 769 L484 771 L485 772 L485 773 L486 774 L486 775 L488 777 L488 778 L497 787 L498 787 L500 789 L501 789 L502 790 L503 790 L504 791 L505 791 L506 792 L508 792 L509 793 L510 793 L511 794 L514 794 L515 795 L518 795 L519 796 L524 796 L525 797 L547 797 L548 796 L553 796 L554 795 L557 795 L558 794 L561 794 L562 793 L563 793 L564 792 L566 792 L567 791 L568 791 L569 790 L570 790 L572 788 L573 788 L574 787 L575 787 L585 777 L585 776 L586 775 L586 774 L588 772 L588 770 L589 769 L589 768 L590 767 L590 764 L591 763 L591 758 L592 757 L592 752 L591 751 L591 744 L590 743 L590 741 L589 740 L589 738 L588 737 L588 736 L587 735 L587 734 L585 732 L585 731 L578 724 L577 724 L575 722 L574 722 L573 721 L572 721 L571 720 L570 720 L569 719 L568 719 L567 718 L566 718 L565 717 L563 717 L562 716 L560 716 L559 715 L557 715 L556 714 L553 714 L552 713 L549 713 L548 712 L545 712 L544 711 L540 711 L539 710 L536 710 L535 709 L531 709 L530 708 L528 708 L527 707 L524 707 L523 706 L522 706 L521 705 L520 705 L518 703 L517 703 L514 700 L514 699 L513 698 L513 697 L512 696 L512 695 L511 694 L511 687 L512 686 L512 684 L513 683 L513 682 L515 680 L515 679 L516 678 L517 678 L520 675 L521 675 L522 674 L524 674 L525 673 L528 673 L529 672 L541 672 L542 673 L545 673 L546 674 L548 674 L549 675 L550 675 L551 676 L552 676 L553 677 L554 677 L559 682 L559 683 L560 684 L560 685 L561 686 L561 688 L562 689 L562 692 L588 692 L588 684 L587 683 L587 680 L586 679 L586 677 L585 676 L585 675 L584 674 L584 673 L583 672 L583 671 L581 669 L581 668 L574 661 L573 661 L571 659 L570 659 L569 658 L568 658 L567 657 L566 657 L565 656 L564 656 L563 655 L561 655 L560 654 L557 654 L556 653 L553 653 L552 652 L546 652 L545 651 Z M338 455 L337 456 L330 456 L329 457 L322 457 L321 458 L313 458 L312 459 L305 459 L304 460 L297 460 L296 461 L288 461 L287 462 L280 462 L279 463 L272 463 L271 464 L263 464 L262 465 L255 465 L254 466 L247 466 L247 467 L249 469 L249 470 L253 474 L253 475 L256 478 L257 478 L262 483 L263 483 L265 485 L266 485 L268 487 L269 487 L270 488 L271 488 L272 489 L273 489 L274 490 L275 490 L276 491 L278 491 L279 492 L281 492 L282 493 L284 493 L285 494 L289 494 L290 495 L297 495 L298 496 L302 496 L303 495 L312 495 L313 494 L318 494 L319 493 L323 493 L324 492 L327 492 L328 491 L331 491 L332 490 L335 490 L335 486 L336 485 L336 480 L337 479 L337 475 L338 474 L338 470 L339 469 L339 466 L340 465 L340 462 L341 461 L341 457 L342 456 L342 455 Z M516 406 L515 407 L502 407 L499 410 L499 411 L498 412 L498 413 L497 414 L497 415 L496 416 L496 417 L495 418 L495 420 L494 421 L494 424 L497 427 L497 428 L499 430 L499 431 L502 434 L502 439 L501 440 L501 444 L500 445 L500 448 L499 449 L499 453 L498 454 L498 458 L497 459 L497 463 L496 464 L496 470 L497 471 L497 472 L498 473 L498 474 L499 475 L499 476 L500 477 L500 478 L501 479 L501 480 L502 481 L502 482 L503 483 L503 484 L504 485 L504 486 L505 487 L505 488 L506 489 L506 490 L507 491 L507 492 L508 493 L508 494 L509 495 L509 496 L510 497 L510 498 L511 499 L511 500 L512 501 L512 500 L513 499 L513 498 L514 497 L514 496 L515 495 L515 494 L516 493 L516 492 L518 490 L518 489 L519 488 L519 487 L520 486 L520 485 L521 484 L521 483 L522 482 L522 481 L523 480 L523 479 L524 478 L524 477 L525 476 L525 475 L526 474 L526 473 L527 472 L527 470 L528 469 L528 468 L527 467 L527 463 L526 462 L526 458 L525 457 L525 453 L524 452 L524 449 L523 448 L523 444 L522 443 L522 435 L523 434 L523 433 L524 432 L524 431 L525 430 L525 429 L526 428 L526 427 L527 426 L527 425 L528 424 L528 423 L529 422 L529 419 L528 418 L528 417 L525 414 L525 413 L522 410 L522 409 L520 407 L519 407 L518 406 Z M565 371 L565 372 L564 373 L564 379 L563 380 L563 386 L562 387 L562 393 L561 394 L561 397 L560 398 L560 401 L559 402 L559 404 L558 405 L558 407 L557 408 L557 411 L556 412 L556 414 L555 415 L555 417 L554 418 L554 420 L553 421 L553 423 L552 424 L552 427 L551 428 L551 430 L550 431 L550 432 L549 433 L549 435 L548 436 L548 438 L547 439 L547 440 L546 441 L546 443 L545 444 L545 445 L544 446 L544 448 L543 449 L543 450 L542 451 L542 453 L541 454 L541 455 L540 456 L540 458 L539 459 L539 460 L538 461 L538 463 L537 464 L537 465 L536 466 L536 468 L535 469 L535 470 L534 471 L534 473 L533 474 L533 475 L532 476 L532 477 L531 478 L531 480 L530 481 L530 482 L529 483 L529 484 L528 485 L528 486 L527 487 L527 488 L526 489 L526 490 L525 491 L525 492 L524 493 L524 495 L523 496 L523 497 L522 498 L522 499 L521 500 L521 501 L520 502 L520 503 L519 504 L519 506 L518 507 L518 508 L517 509 L517 510 L516 511 L516 512 L515 513 L515 514 L514 515 L514 517 L513 518 L511 518 L510 517 L510 516 L509 515 L509 514 L508 513 L508 512 L507 511 L507 510 L506 509 L506 507 L505 506 L505 505 L504 504 L504 503 L503 502 L503 500 L502 499 L502 498 L501 497 L501 496 L500 495 L500 494 L499 493 L499 492 L498 491 L498 490 L497 489 L497 488 L496 487 L496 486 L495 485 L495 483 L494 482 L494 481 L493 480 L493 479 L492 478 L492 477 L491 476 L491 474 L490 473 L490 472 L489 471 L489 469 L488 468 L488 467 L487 466 L487 464 L486 463 L486 462 L485 461 L485 459 L484 458 L484 457 L483 456 L483 454 L482 453 L482 452 L481 451 L481 450 L480 449 L480 447 L479 446 L479 444 L478 443 L478 442 L477 441 L477 439 L476 438 L476 437 L475 436 L475 434 L474 433 L474 431 L473 430 L473 429 L472 428 L472 426 L471 425 L471 423 L470 422 L470 420 L469 419 L469 417 L468 416 L468 414 L467 413 L467 411 L466 410 L466 407 L465 406 L465 404 L464 403 L464 401 L463 400 L463 396 L462 395 L462 391 L461 390 L461 385 L460 384 L460 380 L459 379 L459 374 L458 373 L458 372 L444 386 L443 386 L439 390 L438 390 L436 392 L435 392 L434 393 L432 393 L431 394 L430 394 L429 395 L428 395 L427 396 L426 396 L425 397 L424 397 L423 398 L421 398 L420 399 L419 399 L418 400 L417 400 L416 401 L415 401 L414 402 L413 402 L412 403 L411 403 L410 404 L409 404 L408 405 L407 405 L406 406 L405 406 L404 407 L403 407 L402 408 L401 408 L400 409 L399 409 L398 410 L396 410 L395 411 L394 411 L393 412 L392 412 L391 413 L390 413 L388 415 L387 415 L386 416 L385 416 L384 417 L383 417 L382 418 L381 418 L379 420 L378 420 L375 423 L374 423 L364 433 L364 434 L362 436 L362 437 L360 439 L360 440 L359 441 L359 442 L358 443 L358 444 L357 445 L357 446 L356 447 L356 449 L355 450 L355 452 L354 453 L354 455 L353 456 L353 458 L352 459 L352 462 L351 463 L351 466 L350 467 L350 471 L349 472 L349 476 L348 477 L348 482 L347 483 L347 489 L346 490 L346 495 L345 496 L345 503 L344 504 L344 510 L343 511 L343 517 L342 518 L342 524 L341 525 L341 532 L340 533 L340 539 L341 540 L342 540 L343 541 L344 541 L345 542 L346 542 L347 543 L348 543 L349 544 L350 544 L351 545 L352 545 L353 546 L355 546 L356 547 L357 547 L358 548 L359 548 L360 549 L361 549 L362 550 L363 550 L364 551 L366 551 L367 552 L368 552 L369 553 L370 553 L371 554 L372 554 L373 555 L375 555 L376 556 L377 556 L378 557 L380 557 L381 558 L382 558 L383 559 L384 559 L385 560 L387 560 L388 561 L389 561 L390 562 L392 562 L393 563 L394 563 L395 564 L397 564 L398 565 L399 565 L400 566 L402 566 L403 567 L405 567 L406 568 L408 568 L409 569 L411 569 L412 570 L414 570 L415 571 L417 571 L418 572 L420 572 L421 573 L424 573 L425 574 L427 574 L428 575 L431 575 L432 576 L435 576 L436 577 L439 577 L440 578 L443 578 L444 579 L447 579 L448 580 L452 580 L453 581 L458 581 L459 582 L464 582 L465 583 L470 583 L471 584 L478 584 L479 585 L489 585 L490 586 L538 586 L539 585 L548 585 L549 584 L556 584 L557 583 L563 583 L564 582 L568 582 L569 581 L573 581 L574 580 L578 580 L579 579 L583 579 L584 578 L587 578 L588 577 L591 577 L592 576 L595 576 L596 575 L598 575 L599 574 L602 574 L603 573 L605 573 L606 572 L608 572 L609 571 L611 571 L612 570 L614 570 L615 569 L617 569 L618 568 L620 568 L621 567 L623 567 L624 566 L626 566 L627 565 L628 565 L629 564 L631 564 L632 563 L634 563 L635 562 L636 562 L637 561 L639 561 L640 560 L641 560 L642 559 L644 559 L645 558 L646 558 L647 557 L648 557 L649 556 L651 556 L652 555 L653 555 L654 554 L655 554 L656 553 L658 553 L659 552 L660 552 L661 551 L662 551 L663 550 L664 550 L665 549 L667 549 L668 548 L669 548 L670 547 L671 547 L672 546 L673 546 L674 545 L675 545 L676 544 L678 544 L679 543 L680 543 L681 542 L682 542 L683 541 L684 541 L685 540 L686 540 L687 539 L688 539 L689 538 L690 538 L691 537 L693 537 L694 536 L693 535 L693 534 L692 533 L692 532 L691 531 L691 529 L690 528 L690 526 L689 525 L689 522 L688 521 L688 518 L687 517 L687 510 L686 509 L686 503 L682 507 L680 507 L678 505 L678 500 L677 499 L677 493 L676 492 L676 486 L675 485 L675 479 L674 478 L674 473 L673 472 L673 468 L672 467 L672 463 L671 462 L671 459 L670 458 L670 456 L669 455 L669 453 L668 452 L668 450 L667 449 L667 447 L666 446 L666 445 L665 444 L665 443 L664 442 L664 441 L663 440 L663 439 L661 437 L661 436 L658 433 L658 432 L648 422 L647 422 L645 420 L644 420 L642 418 L641 418 L640 417 L639 417 L638 416 L637 416 L635 414 L634 414 L633 413 L632 413 L631 412 L630 412 L629 411 L628 411 L627 410 L626 410 L625 409 L624 409 L623 408 L622 408 L621 407 L620 407 L619 406 L618 406 L617 405 L615 405 L614 404 L613 404 L612 403 L611 403 L610 402 L609 402 L608 401 L607 401 L606 400 L605 400 L604 399 L603 399 L602 398 L601 398 L600 397 L599 397 L598 396 L597 396 L596 395 L595 395 L594 394 L592 394 L591 393 L590 393 L589 392 L588 392 L586 390 L585 390 L578 383 L577 383 Z M582 440 L583 439 L587 439 L588 440 L591 440 L592 441 L592 444 L591 445 L591 446 L590 447 L590 448 L588 450 L588 451 L587 452 L587 453 L585 455 L585 456 L583 458 L583 459 L581 461 L581 462 L578 465 L578 466 L574 470 L574 471 L569 476 L569 477 L564 482 L564 483 L559 488 L559 489 L557 491 L555 491 L554 490 L554 488 L555 487 L555 486 L557 484 L557 483 L559 481 L559 480 L560 479 L560 478 L562 476 L562 475 L564 473 L564 472 L566 470 L566 469 L568 467 L568 466 L569 465 L569 464 L571 462 L571 461 L572 460 L572 459 L574 457 L574 456 L575 455 L575 454 L577 452 L577 451 L578 450 L578 449 L580 447 L580 446 L581 445 L581 443 L582 442 Z M437 440 L438 439 L441 439 L442 440 L442 441 L443 442 L443 444 L444 445 L444 447 L445 448 L445 449 L446 450 L446 451 L448 453 L448 454 L449 455 L449 456 L451 458 L451 459 L452 460 L452 461 L454 463 L454 464 L455 465 L455 466 L457 468 L457 469 L459 471 L459 472 L460 473 L460 474 L462 476 L462 477 L464 479 L464 480 L466 482 L466 483 L468 485 L468 486 L469 487 L469 489 L468 490 L466 490 L464 488 L464 487 L458 481 L458 480 L453 475 L453 474 L449 470 L449 469 L446 466 L446 465 L443 462 L443 461 L441 459 L441 458 L439 456 L439 455 L436 452 L436 451 L434 449 L434 448 L433 447 L433 446 L431 444 L431 442 L432 441 L434 441 L435 440 Z M811 276 L810 277 L808 277 L807 278 L804 278 L803 279 L801 279 L800 280 L797 280 L796 281 L794 281 L793 282 L791 282 L790 283 L787 283 L786 284 L784 284 L783 285 L781 285 L780 286 L777 286 L776 287 L774 287 L773 288 L770 288 L769 289 L767 289 L766 290 L764 290 L763 291 L760 291 L759 292 L757 292 L756 293 L753 293 L752 294 L750 294 L749 295 L747 295 L746 296 L743 296 L742 297 L740 297 L739 298 L736 298 L735 299 L733 299 L732 300 L729 300 L728 301 L726 301 L725 302 L723 302 L722 303 L719 303 L718 304 L716 304 L715 305 L713 305 L712 306 L709 306 L708 307 L706 307 L705 308 L702 308 L701 309 L699 309 L698 310 L695 310 L694 311 L692 311 L691 312 L689 312 L688 313 L685 313 L684 314 L682 314 L681 315 L678 315 L677 316 L675 316 L674 317 L672 317 L671 318 L668 318 L667 319 L665 319 L664 320 L661 320 L660 321 L658 321 L657 322 L655 322 L654 323 L651 323 L650 324 L649 324 L648 325 L646 325 L645 326 L644 326 L643 327 L641 327 L640 328 L639 328 L637 330 L636 330 L635 331 L634 331 L632 333 L631 333 L628 336 L627 336 L619 344 L619 345 L616 348 L616 349 L614 351 L614 352 L613 353 L613 354 L612 355 L612 356 L611 357 L611 358 L610 359 L610 361 L609 362 L609 364 L608 365 L608 367 L607 368 L607 372 L606 373 L606 378 L605 379 L605 388 L606 388 L607 389 L608 389 L609 390 L610 390 L611 391 L612 391 L613 392 L614 392 L615 393 L616 393 L617 394 L618 394 L619 395 L621 395 L622 396 L623 396 L624 397 L625 397 L626 398 L627 398 L628 399 L629 399 L630 400 L631 400 L632 401 L633 401 L634 402 L635 402 L636 403 L637 403 L638 404 L639 404 L640 405 L641 405 L642 406 L643 406 L645 408 L646 408 L647 409 L648 409 L650 411 L651 411 L655 415 L656 415 L666 425 L666 426 L669 429 L669 430 L671 432 L671 433 L673 435 L673 436 L674 437 L674 438 L675 439 L675 440 L676 441 L676 442 L677 443 L689 443 L690 444 L709 444 L710 445 L730 445 L731 446 L737 446 L738 445 L738 444 L739 443 L739 442 L740 441 L740 440 L741 439 L741 438 L742 437 L742 436 L743 435 L743 434 L744 433 L744 432 L745 431 L745 429 L746 428 L746 427 L747 426 L747 425 L748 424 L748 423 L749 422 L749 421 L750 420 L750 419 L751 418 L751 416 L752 415 L752 414 L753 413 L753 411 L754 410 L754 409 L755 408 L745 408 L744 409 L734 409 L733 410 L722 410 L721 411 L711 411 L710 412 L699 412 L698 413 L688 413 L687 414 L676 414 L675 415 L664 415 L663 416 L657 416 L656 415 L656 413 L657 412 L657 411 L662 406 L663 406 L664 405 L665 405 L666 404 L669 404 L670 403 L679 403 L680 402 L688 402 L689 401 L699 401 L700 400 L709 400 L710 399 L719 399 L720 398 L729 398 L730 397 L740 397 L741 396 L750 396 L751 395 L759 395 L760 394 L762 394 L762 392 L763 391 L763 390 L764 389 L764 388 L765 387 L765 385 L766 384 L766 383 L767 382 L767 380 L768 379 L768 378 L769 377 L769 375 L770 374 L770 373 L771 372 L771 371 L772 370 L772 368 L773 367 L773 366 L774 365 L774 364 L775 363 L775 362 L776 361 L776 360 L777 359 L777 358 L778 357 L778 355 L779 354 L779 353 L780 352 L780 351 L781 350 L781 349 L780 349 L779 350 L776 350 L775 351 L771 351 L770 352 L766 352 L765 353 L761 353 L760 354 L756 354 L755 355 L751 355 L750 356 L746 356 L745 357 L741 357 L740 358 L736 358 L735 359 L731 359 L730 360 L726 360 L725 361 L721 361 L720 362 L716 362 L715 363 L711 363 L710 364 L706 364 L705 365 L701 365 L700 366 L696 366 L695 367 L691 367 L690 368 L686 368 L685 369 L681 369 L680 370 L676 370 L675 371 L671 371 L670 372 L664 372 L663 371 L663 369 L665 367 L665 366 L669 362 L670 362 L671 361 L672 361 L673 360 L674 360 L675 359 L678 359 L679 358 L682 358 L683 357 L686 357 L687 356 L690 356 L691 355 L694 355 L695 354 L698 354 L699 353 L702 353 L703 352 L706 352 L707 351 L710 351 L711 350 L715 350 L716 349 L719 349 L720 348 L723 348 L724 347 L727 347 L728 346 L731 346 L732 345 L735 345 L736 344 L740 344 L741 343 L744 343 L745 342 L748 342 L749 341 L752 341 L753 340 L756 340 L757 339 L760 339 L761 338 L764 338 L765 337 L768 337 L769 336 L772 336 L773 335 L776 335 L777 334 L780 334 L781 333 L784 333 L785 332 L788 332 L789 331 L789 330 L790 329 L790 327 L791 326 L791 325 L792 324 L792 323 L793 322 L793 320 L794 319 L794 318 L795 317 L795 316 L796 315 L796 314 L797 313 L797 311 L798 310 L798 309 L799 308 L799 307 L800 306 L800 304 L801 303 L801 302 L802 301 L802 299 L803 298 L803 296 L804 295 L804 294 L805 293 L805 291 L806 290 L806 288 L807 287 L807 286 L808 285 L808 283 L809 282 L809 281 L810 280 L810 279 L811 278 Z M165 263 L165 269 L166 270 L166 276 L167 277 L167 280 L168 281 L168 284 L169 285 L169 287 L170 288 L170 289 L171 290 L171 291 L172 292 L172 294 L173 295 L173 296 L175 298 L175 299 L177 301 L177 302 L180 305 L180 306 L187 313 L188 313 L191 316 L192 316 L194 318 L195 318 L196 319 L197 319 L198 320 L199 320 L200 321 L201 321 L202 322 L203 322 L204 323 L206 323 L207 324 L209 324 L210 325 L212 325 L213 326 L216 326 L217 327 L220 327 L221 328 L224 328 L225 329 L228 329 L229 330 L233 330 L234 331 L237 331 L238 332 L241 332 L242 333 L246 333 L247 334 L250 334 L251 335 L254 335 L255 336 L258 336 L259 337 L262 337 L263 338 L266 338 L267 339 L270 339 L271 340 L274 340 L275 341 L278 341 L279 342 L282 342 L283 343 L286 343 L287 344 L290 344 L291 345 L294 345 L295 346 L298 346 L299 347 L302 347 L303 348 L306 348 L307 349 L310 349 L311 350 L314 350 L315 351 L318 351 L319 352 L322 352 L323 353 L326 353 L327 354 L331 354 L332 355 L334 355 L335 356 L339 356 L340 357 L343 357 L344 358 L346 358 L347 359 L349 359 L350 360 L351 360 L352 361 L353 361 L355 363 L356 363 L358 365 L358 366 L360 368 L360 369 L361 370 L361 372 L360 373 L355 373 L354 372 L350 372 L349 371 L346 371 L345 370 L341 370 L340 369 L336 369 L335 368 L332 368 L331 367 L327 367 L326 366 L322 366 L321 365 L317 365 L316 364 L312 364 L311 363 L307 363 L306 362 L303 362 L302 361 L298 361 L297 360 L293 360 L292 359 L289 359 L288 358 L284 358 L283 357 L279 357 L278 356 L275 356 L274 355 L270 355 L269 354 L265 354 L264 353 L261 353 L260 352 L256 352 L255 351 L251 351 L250 350 L247 350 L246 349 L242 349 L241 348 L238 348 L237 347 L233 347 L232 346 L229 346 L228 345 L225 345 L224 344 L220 344 L219 343 L216 343 L215 342 L211 342 L210 341 L206 341 L205 340 L202 340 L201 339 L198 339 L197 338 L193 338 L192 337 L189 337 L188 336 L185 336 L184 335 L180 335 L180 339 L181 340 L181 344 L182 345 L182 347 L183 348 L183 350 L184 351 L184 353 L185 354 L185 355 L186 356 L186 357 L187 358 L187 359 L188 360 L188 361 L189 362 L189 363 L191 365 L191 366 L193 368 L193 369 L204 380 L205 380 L208 383 L209 383 L210 384 L211 384 L213 386 L214 386 L215 387 L216 387 L217 388 L219 388 L220 389 L221 389 L222 390 L225 390 L226 391 L229 391 L230 392 L234 392 L235 393 L243 393 L244 394 L256 394 L257 395 L267 395 L268 396 L279 396 L280 397 L290 397 L291 398 L301 398 L302 399 L311 399 L312 400 L323 400 L324 401 L334 401 L335 402 L345 402 L346 403 L354 403 L355 404 L357 404 L358 405 L359 405 L360 406 L361 406 L367 412 L367 415 L366 416 L359 416 L358 415 L344 415 L343 414 L329 414 L328 413 L314 413 L313 412 L298 412 L297 411 L284 411 L283 410 L268 410 L267 409 L254 409 L253 408 L242 408 L241 407 L232 407 L231 406 L220 406 L219 405 L206 405 L205 404 L204 404 L204 405 L205 406 L205 408 L206 409 L206 410 L207 411 L207 412 L208 413 L208 414 L209 415 L209 416 L210 417 L210 418 L211 419 L211 420 L213 422 L213 423 L217 427 L217 428 L224 435 L225 435 L228 438 L229 438 L231 440 L232 440 L233 441 L234 441 L236 443 L237 443 L238 444 L240 444 L241 445 L242 445 L243 446 L245 446 L246 447 L248 447 L249 448 L253 448 L254 449 L260 449 L261 450 L274 450 L275 449 L284 449 L285 448 L295 448 L296 447 L306 447 L307 446 L317 446 L318 445 L327 445 L328 444 L338 444 L339 443 L346 443 L347 442 L347 441 L348 440 L348 439 L349 438 L349 437 L350 436 L350 435 L352 433 L352 432 L354 430 L354 429 L357 426 L357 425 L365 417 L366 417 L371 412 L372 412 L374 410 L375 410 L377 408 L378 408 L379 407 L380 407 L382 405 L383 405 L384 404 L385 404 L386 403 L388 403 L389 402 L390 402 L391 401 L392 401 L393 400 L394 400 L395 399 L396 399 L397 398 L398 398 L399 397 L400 397 L401 396 L402 396 L403 395 L404 395 L405 394 L406 394 L407 393 L408 393 L409 392 L410 392 L411 391 L412 391 L413 390 L415 390 L416 389 L417 389 L418 388 L419 388 L419 382 L418 381 L418 374 L417 373 L417 369 L416 368 L416 365 L415 364 L415 362 L414 361 L414 360 L413 359 L413 358 L412 357 L412 356 L411 355 L411 354 L410 353 L410 352 L409 351 L409 350 L406 347 L406 346 L395 335 L394 335 L392 333 L391 333 L389 331 L388 331 L387 330 L386 330 L385 329 L384 329 L382 327 L380 327 L379 326 L378 326 L377 325 L375 325 L374 324 L373 324 L372 323 L369 323 L368 322 L366 322 L365 321 L363 321 L362 320 L360 320 L359 319 L356 319 L355 318 L353 318 L352 317 L349 317 L348 316 L346 316 L345 315 L342 315 L341 314 L339 314 L338 313 L336 313 L335 312 L332 312 L331 311 L329 311 L328 310 L325 310 L324 309 L322 309 L321 308 L318 308 L317 307 L315 307 L314 306 L311 306 L310 305 L308 305 L307 304 L305 304 L304 303 L301 303 L300 302 L298 302 L297 301 L294 301 L293 300 L291 300 L290 299 L288 299 L287 298 L284 298 L283 297 L281 297 L280 296 L277 296 L276 295 L274 295 L273 294 L271 294 L270 293 L267 293 L266 292 L264 292 L263 291 L260 291 L259 290 L257 290 L256 289 L254 289 L253 288 L250 288 L249 287 L247 287 L246 286 L243 286 L242 285 L240 285 L239 284 L236 284 L235 283 L233 283 L232 282 L230 282 L229 281 L226 281 L225 280 L223 280 L222 279 L220 279 L219 278 L216 278 L215 277 L213 277 L212 276 L209 276 L208 275 L206 275 L205 274 L202 274 L201 273 L199 273 L198 272 L196 272 L195 271 L192 271 L191 270 L189 270 L188 269 L186 269 L185 268 L182 268 L181 267 L179 267 L178 266 L175 266 L174 265 L172 265 L171 264 L168 264 L167 263 Z M869 168 L868 169 L868 170 L867 171 L867 172 L866 173 L866 174 L865 175 L865 177 L864 178 L864 179 L863 180 L863 182 L862 183 L862 184 L861 185 L861 187 L860 188 L860 189 L859 190 L859 191 L858 192 L858 194 L857 195 L857 196 L856 197 L856 198 L855 199 L855 201 L854 202 L854 203 L853 204 L853 206 L852 207 L852 208 L851 209 L851 211 L850 212 L850 213 L849 214 L849 215 L848 216 L848 218 L847 219 L847 220 L846 221 L846 223 L845 224 L845 225 L844 226 L844 227 L843 228 L843 230 L842 231 L842 232 L841 233 L841 235 L840 236 L840 237 L839 238 L839 239 L838 240 L838 242 L837 243 L837 244 L836 245 L836 247 L835 248 L835 249 L834 250 L834 251 L833 252 L833 254 L832 255 L832 256 L831 257 L831 258 L830 259 L830 261 L829 262 L829 263 L828 264 L828 266 L827 267 L827 268 L826 269 L826 270 L825 271 L825 273 L824 274 L824 275 L823 276 L823 278 L822 279 L822 280 L821 281 L821 282 L820 283 L820 285 L819 286 L819 287 L818 288 L818 290 L817 291 L817 292 L816 293 L816 294 L815 295 L815 297 L814 298 L814 299 L813 300 L813 301 L812 302 L812 304 L811 305 L811 306 L810 307 L810 308 L809 309 L809 311 L808 312 L808 313 L807 314 L807 316 L806 317 L806 318 L805 319 L805 320 L804 321 L804 323 L803 324 L803 325 L802 326 L802 327 L801 328 L801 330 L800 331 L800 332 L799 333 L799 334 L798 335 L798 337 L797 338 L797 339 L796 340 L796 341 L795 342 L795 344 L794 345 L794 346 L793 347 L793 349 L792 350 L792 351 L791 352 L791 353 L790 354 L790 356 L789 357 L789 358 L788 359 L788 360 L787 361 L787 363 L786 364 L786 365 L785 366 L785 367 L784 368 L784 370 L783 371 L783 372 L782 373 L782 374 L781 375 L781 377 L780 378 L780 379 L779 380 L779 381 L778 382 L778 384 L777 385 L777 386 L776 387 L776 389 L775 390 L775 391 L774 392 L774 393 L773 394 L773 396 L772 397 L772 398 L771 399 L771 400 L770 401 L770 403 L769 404 L769 405 L768 406 L768 407 L767 408 L767 410 L766 411 L766 412 L765 413 L765 414 L764 415 L764 417 L763 418 L763 419 L762 420 L762 421 L761 422 L761 424 L760 425 L760 426 L759 427 L759 428 L758 429 L758 430 L757 431 L757 433 L756 434 L756 435 L755 436 L755 438 L754 439 L754 440 L753 441 L753 442 L752 443 L752 445 L751 446 L751 447 L750 448 L750 449 L749 450 L749 452 L748 453 L748 454 L747 455 L747 456 L746 457 L746 459 L745 460 L745 461 L743 463 L738 463 L737 462 L735 462 L734 461 L724 461 L723 462 L721 462 L720 463 L719 463 L718 464 L717 464 L715 466 L714 466 L706 474 L706 475 L704 477 L704 478 L703 479 L703 480 L702 481 L702 482 L701 483 L701 484 L700 485 L700 486 L699 487 L699 489 L698 490 L698 492 L697 493 L697 497 L696 498 L696 517 L697 518 L697 521 L698 522 L698 524 L699 525 L699 527 L700 528 L700 529 L701 530 L701 531 L703 533 L703 534 L710 541 L710 544 L709 545 L709 546 L708 547 L708 549 L707 550 L707 551 L706 552 L706 554 L705 555 L705 556 L704 557 L704 558 L703 559 L703 561 L702 562 L702 567 L703 568 L703 569 L707 573 L715 573 L719 569 L719 567 L720 566 L720 565 L721 564 L721 562 L722 561 L722 560 L723 559 L723 557 L724 556 L724 555 L725 554 L725 552 L726 551 L726 550 L727 549 L727 547 L728 546 L728 545 L729 544 L729 542 L730 541 L730 540 L732 538 L734 538 L735 537 L737 537 L738 536 L740 536 L741 535 L743 535 L744 534 L746 534 L747 533 L748 533 L749 532 L750 532 L754 528 L754 519 L755 518 L756 518 L757 517 L758 517 L762 513 L762 505 L761 504 L761 501 L764 498 L764 497 L765 496 L765 488 L764 487 L764 486 L762 484 L762 482 L763 481 L764 481 L766 479 L766 478 L767 477 L767 476 L768 475 L768 471 L767 470 L767 468 L762 463 L761 463 L760 462 L759 462 L758 461 L758 458 L759 457 L759 456 L760 455 L760 453 L761 452 L761 451 L762 450 L762 449 L763 448 L763 446 L764 445 L764 444 L765 443 L765 441 L766 440 L766 439 L767 438 L767 436 L768 435 L768 434 L769 433 L769 431 L770 430 L770 429 L771 428 L771 427 L772 426 L772 424 L773 423 L773 422 L774 421 L774 419 L775 418 L775 417 L776 416 L776 414 L777 413 L777 412 L778 411 L778 409 L779 408 L779 407 L780 406 L780 404 L781 403 L781 402 L782 401 L782 400 L783 399 L783 397 L784 396 L784 395 L785 394 L785 392 L786 391 L786 390 L787 389 L787 387 L788 386 L788 385 L789 384 L789 382 L790 381 L790 380 L791 379 L791 378 L792 377 L792 375 L793 374 L793 373 L794 372 L794 370 L795 369 L795 368 L796 367 L796 365 L797 364 L797 363 L798 362 L798 360 L799 359 L799 358 L800 357 L800 356 L801 355 L801 353 L802 352 L802 351 L803 350 L803 348 L804 347 L804 346 L805 345 L805 343 L806 342 L806 341 L807 340 L807 338 L808 337 L808 336 L809 335 L809 333 L810 332 L810 331 L811 330 L811 329 L812 328 L812 326 L813 325 L813 324 L814 323 L814 321 L815 320 L815 319 L816 318 L816 316 L817 315 L817 314 L818 313 L818 312 L819 311 L819 309 L820 308 L820 307 L821 306 L821 304 L822 303 L822 302 L823 301 L823 299 L824 298 L824 297 L825 296 L825 294 L826 293 L826 292 L827 291 L827 290 L828 289 L828 287 L829 286 L829 285 L830 284 L830 282 L831 281 L831 280 L832 279 L832 277 L833 276 L833 275 L834 274 L834 272 L835 271 L835 270 L836 269 L836 267 L837 266 L837 265 L838 264 L838 263 L839 262 L839 260 L840 259 L840 258 L841 257 L841 255 L842 254 L842 253 L843 252 L843 250 L844 249 L844 248 L845 247 L845 246 L846 245 L846 243 L847 242 L847 241 L848 240 L848 238 L849 237 L849 236 L850 235 L850 233 L851 232 L851 231 L852 230 L852 228 L853 227 L853 226 L854 225 L854 223 L855 222 L855 221 L856 220 L856 218 L857 217 L857 216 L858 215 L858 213 L859 212 L859 211 L860 210 L860 209 L861 208 L861 206 L862 205 L862 204 L863 203 L863 201 L864 200 L864 199 L865 198 L865 196 L866 195 L866 194 L867 193 L867 191 L868 190 L868 189 L869 188 L869 187 L870 186 L870 184 L871 183 L871 182 L872 181 L872 179 L873 178 L873 177 L874 176 L874 174 L875 173 L875 170 L873 168 Z M511 155 L510 156 L507 156 L506 157 L504 157 L503 158 L501 158 L500 159 L498 159 L497 160 L495 160 L494 161 L492 161 L491 162 L489 162 L488 163 L486 163 L485 164 L483 164 L482 165 L480 165 L479 166 L477 166 L476 167 L474 167 L473 168 L471 168 L470 169 L468 169 L467 170 L465 170 L464 171 L462 171 L461 172 L458 172 L457 173 L455 173 L454 174 L452 174 L451 175 L449 175 L448 176 L446 176 L445 177 L443 177 L442 178 L440 178 L439 179 L437 179 L436 180 L434 180 L433 181 L431 181 L430 182 L428 182 L427 183 L425 183 L424 184 L422 184 L421 185 L419 185 L418 186 L416 186 L415 187 L413 187 L412 188 L410 188 L409 189 L407 189 L406 190 L404 190 L403 191 L401 191 L400 192 L398 192 L397 193 L395 193 L394 194 L392 194 L391 195 L389 195 L387 197 L387 200 L388 201 L388 202 L389 202 L390 203 L392 203 L393 204 L395 204 L396 205 L398 205 L399 206 L401 206 L402 207 L404 207 L405 208 L407 208 L408 209 L410 209 L411 210 L413 210 L414 211 L416 211 L417 212 L419 212 L420 213 L422 213 L423 214 L425 214 L426 215 L428 215 L429 216 L431 216 L432 217 L434 217 L435 218 L437 218 L438 219 L440 219 L441 220 L442 220 L443 221 L443 264 L444 265 L444 267 L445 268 L445 270 L446 271 L446 273 L445 274 L440 274 L438 276 L437 276 L436 277 L436 278 L434 280 L434 281 L433 282 L433 284 L432 285 L432 294 L433 295 L433 301 L434 302 L434 305 L435 306 L435 309 L436 310 L436 312 L437 313 L437 314 L438 315 L438 316 L439 317 L439 318 L441 320 L441 321 L445 325 L446 325 L447 326 L448 326 L449 327 L449 328 L450 329 L450 332 L451 333 L451 336 L452 337 L452 339 L453 340 L453 342 L454 343 L454 345 L455 346 L455 347 L456 348 L456 350 L457 351 L457 352 L458 353 L458 354 L459 355 L459 356 L460 357 L460 358 L461 359 L461 360 L462 361 L462 362 L464 364 L464 365 L465 366 L465 367 L468 370 L468 371 L471 374 L471 375 L482 386 L483 386 L485 388 L486 388 L488 390 L489 390 L491 392 L492 392 L493 393 L494 393 L495 394 L496 394 L497 395 L499 395 L500 396 L503 396 L504 397 L519 397 L520 396 L523 396 L524 395 L526 395 L527 394 L528 394 L529 393 L530 393 L531 392 L532 392 L533 391 L534 391 L537 388 L538 388 L541 385 L542 385 L551 376 L551 375 L554 372 L554 371 L556 369 L556 368 L558 366 L558 365 L560 363 L560 362 L561 361 L561 360 L562 359 L562 358 L563 357 L563 356 L564 355 L564 354 L565 353 L565 352 L566 351 L566 350 L567 349 L567 348 L568 347 L568 345 L569 344 L569 342 L570 341 L570 340 L571 339 L571 337 L572 336 L572 333 L573 332 L573 330 L574 329 L574 327 L575 326 L577 326 L584 319 L584 318 L586 316 L586 315 L587 314 L587 312 L588 311 L588 309 L589 308 L589 306 L590 305 L590 301 L591 300 L591 296 L592 295 L592 285 L591 284 L591 282 L590 281 L590 280 L585 275 L584 275 L583 274 L579 274 L578 273 L578 269 L579 268 L579 267 L580 266 L580 220 L581 219 L582 219 L583 218 L585 218 L586 217 L588 217 L589 216 L591 216 L592 215 L594 215 L595 214 L597 214 L598 213 L600 213 L601 212 L603 212 L604 211 L606 211 L607 210 L611 210 L612 211 L612 228 L611 229 L610 229 L607 232 L607 234 L606 235 L606 238 L607 239 L607 240 L608 241 L608 242 L609 243 L609 250 L608 251 L608 256 L607 257 L607 263 L606 264 L606 269 L605 270 L605 278 L606 279 L625 279 L627 277 L627 275 L626 274 L626 269 L625 268 L625 263 L624 262 L624 257 L623 256 L623 252 L622 251 L622 243 L624 241 L624 239 L625 238 L625 234 L624 233 L624 232 L619 227 L619 207 L621 205 L623 205 L624 204 L626 204 L627 203 L629 203 L630 202 L633 202 L634 201 L635 201 L636 200 L636 197 L635 196 L634 196 L633 195 L632 195 L631 194 L629 194 L628 193 L626 193 L625 192 L623 192 L622 191 L619 191 L618 190 L616 190 L615 189 L613 189 L612 188 L610 188 L609 187 L607 187 L606 186 L604 186 L603 185 L601 185 L600 184 L598 184 L597 183 L595 183 L594 182 L592 182 L591 181 L589 181 L588 180 L586 180 L585 179 L583 179 L582 178 L580 178 L579 177 L577 177 L576 176 L574 176 L573 175 L571 175 L570 174 L568 174 L567 173 L565 173 L564 172 L562 172 L561 171 L559 171 L558 170 L556 170 L555 169 L553 169 L552 168 L550 168 L549 167 L547 167 L546 166 L544 166 L543 165 L541 165 L540 164 L538 164 L537 163 L535 163 L534 162 L532 162 L531 161 L529 161 L528 160 L526 160 L525 159 L523 159 L522 158 L520 158 L519 157 L517 157 L516 156 L512 156 Z M443 283 L446 283 L447 284 L448 284 L449 285 L450 285 L451 286 L453 286 L454 287 L456 287 L457 288 L459 288 L460 289 L461 289 L462 290 L462 291 L463 292 L463 294 L464 295 L464 297 L465 298 L465 299 L467 301 L467 302 L470 305 L471 305 L473 307 L474 307 L475 308 L477 308 L478 309 L489 309 L490 308 L492 308 L493 307 L494 307 L496 305 L497 305 L500 302 L500 301 L502 299 L502 298 L503 297 L503 295 L504 294 L504 291 L505 290 L505 285 L507 283 L517 283 L518 284 L518 288 L519 289 L519 294 L520 295 L520 297 L521 298 L521 299 L523 301 L523 302 L526 305 L527 305 L529 307 L530 307 L531 308 L533 308 L534 309 L545 309 L546 308 L548 308 L549 307 L550 307 L552 305 L553 305 L557 301 L557 300 L558 299 L558 298 L559 297 L559 296 L560 295 L560 293 L561 292 L561 290 L563 288 L564 288 L565 287 L566 287 L567 286 L570 286 L571 285 L575 285 L576 284 L581 284 L584 287 L584 299 L583 300 L583 302 L582 303 L582 305 L581 306 L581 307 L580 308 L580 309 L579 310 L579 311 L578 312 L578 313 L573 318 L571 318 L570 317 L569 317 L569 318 L568 319 L568 321 L567 322 L567 326 L566 327 L566 330 L565 331 L565 335 L564 336 L564 338 L563 339 L563 340 L562 341 L562 342 L561 343 L561 344 L560 345 L560 346 L559 347 L559 348 L558 349 L558 350 L557 351 L557 352 L555 354 L555 355 L553 357 L553 358 L542 369 L541 369 L539 371 L538 371 L536 373 L535 373 L534 374 L533 374 L532 375 L531 375 L530 376 L529 376 L528 377 L526 377 L525 378 L522 378 L521 379 L514 379 L513 380 L509 380 L508 379 L501 379 L500 378 L498 378 L497 377 L495 377 L494 376 L493 376 L492 375 L491 375 L489 373 L488 373 L487 372 L486 372 L483 369 L482 369 L470 357 L470 356 L468 354 L468 353 L466 351 L466 350 L464 348 L464 347 L463 346 L463 345 L462 344 L462 343 L461 342 L461 340 L460 339 L460 336 L459 335 L459 333 L458 332 L458 328 L457 327 L457 324 L456 323 L456 319 L455 318 L455 317 L454 317 L453 318 L451 318 L446 313 L446 312 L445 311 L445 310 L444 309 L444 308 L443 307 L443 306 L442 305 L442 303 L441 302 L441 301 L440 300 L440 296 L439 295 L439 288 L440 287 L440 286 Z M497 320 L496 321 L494 321 L493 322 L492 322 L486 328 L486 329 L479 336 L478 336 L477 337 L476 337 L475 338 L471 338 L471 339 L473 341 L473 342 L475 344 L476 344 L477 345 L478 345 L479 346 L482 346 L483 347 L492 347 L493 346 L497 346 L498 345 L500 345 L501 344 L502 344 L503 343 L504 343 L505 342 L506 342 L508 340 L509 340 L510 339 L513 339 L515 341 L516 341 L517 342 L518 342 L519 343 L520 343 L521 344 L522 344 L523 345 L525 345 L526 346 L530 346 L531 347 L540 347 L541 346 L544 346 L545 345 L546 345 L547 344 L548 344 L551 341 L551 340 L552 339 L552 338 L548 338 L547 337 L546 337 L545 336 L544 336 L537 329 L537 328 L532 323 L531 323 L530 322 L529 322 L528 321 L527 321 L526 320 L519 320 L518 321 L516 321 L514 323 L509 323 L507 321 L505 321 L504 320 Z M536 273 L537 272 L542 272 L543 273 L545 273 L546 274 L547 274 L549 276 L550 276 L551 277 L551 278 L553 280 L553 281 L554 282 L554 283 L555 284 L555 291 L554 292 L554 294 L553 295 L553 296 L548 301 L547 301 L546 302 L544 302 L543 303 L536 303 L535 302 L533 302 L531 300 L530 300 L527 297 L527 296 L526 295 L526 294 L525 293 L525 291 L524 290 L524 286 L525 285 L525 282 L526 281 L526 280 L532 274 L533 274 L534 273 Z M480 273 L481 272 L486 272 L487 273 L489 273 L490 274 L491 274 L497 280 L497 281 L498 282 L498 284 L499 285 L499 291 L498 292 L498 293 L497 294 L497 295 L496 296 L496 297 L493 300 L492 300 L490 302 L488 302 L487 303 L480 303 L479 302 L477 302 L475 300 L474 300 L471 297 L471 296 L470 295 L470 294 L469 293 L469 292 L468 291 L468 285 L469 284 L469 282 L470 281 L470 280 L472 278 L472 277 L473 276 L474 276 L476 274 L477 274 L478 273 Z M501 247 L502 246 L523 246 L524 247 L535 247 L536 248 L542 248 L543 249 L548 249 L549 250 L553 250 L554 251 L557 251 L558 252 L562 252 L563 253 L566 253 L567 254 L569 254 L570 255 L570 277 L569 278 L568 278 L567 279 L565 279 L564 280 L560 280 L559 279 L559 278 L558 277 L558 276 L556 274 L556 273 L554 271 L553 271 L551 269 L550 269 L549 268 L548 268 L547 267 L545 267 L544 266 L535 266 L534 267 L532 267 L531 268 L530 268 L529 269 L528 269 L522 275 L522 276 L521 277 L517 277 L516 276 L507 276 L506 277 L502 277 L501 276 L501 275 L495 269 L494 269 L493 268 L492 268 L491 267 L489 267 L488 266 L479 266 L478 267 L476 267 L475 268 L474 268 L473 269 L472 269 L465 276 L465 277 L464 278 L464 279 L463 280 L459 280 L458 279 L457 279 L456 278 L455 278 L454 277 L454 255 L455 254 L458 254 L459 253 L462 253 L463 252 L466 252 L467 251 L470 251 L471 250 L476 250 L477 249 L481 249 L482 248 L490 248 L491 247 Z" fill="#0C3A55" fill-rule="evenodd"/>
</svg>